<svg width="56" height="23" viewBox="0 0 56 23" fill="none" xmlns="http://www.w3.org/2000/svg">
    <path d="M8.00797 0C9.0289 0 10.0056 0.199187 10.9381 0.597561C11.8706 0.987805 12.6986 1.54472 13.4221 2.26829C14.1537 2.98374 14.7365 3.89837 15.1706 5.0122C15.6047 6.12602 15.8217 7.34959 15.8217 8.68293C15.8217 9.90244 15.6811 11.0285 15.3997 12.061C15.1183 13.0854 14.7325 13.9593 14.2421 14.6829C13.7598 15.4065 13.189 16.0244 12.5298 16.5366C11.8787 17.0407 11.1753 17.4146 10.4196 17.6585C9.67201 17.9024 8.89224 18.0244 8.08032 18.0244C7.68641 18.0244 7.26437 17.9919 6.8142 17.9268C7.40907 18.2033 8.16875 18.5894 9.09322 19.0854C10.0257 19.5813 10.7854 19.9797 11.3722 20.2805C11.9591 20.5813 12.6343 20.8537 13.398 21.0976C14.1617 21.3415 14.8651 21.4634 15.5082 21.4634C15.8217 21.4634 16.1272 21.4309 16.4247 21.3659C16.7221 21.3089 16.9633 21.2439 17.1482 21.1707C17.3331 21.0976 17.5059 21.0122 17.6667 20.9146C17.8274 20.8252 17.9319 20.7602 17.9802 20.7195C18.0284 20.687 18.0646 20.6585 18.0887 20.6341L18.3781 21L18.2213 21.2073C18.1168 21.3455 17.952 21.5122 17.727 21.7073C17.5019 21.9024 17.2366 22.0976 16.9311 22.2927C16.6337 22.4878 16.2558 22.6545 15.7976 22.7927C15.3475 22.9309 14.8732 23 14.3748 23C13.9085 23 13.4262 22.9024 12.9278 22.7073C12.4293 22.5122 11.939 22.2561 11.4566 21.939C10.9823 21.622 10.4839 21.2683 9.96141 20.878C9.44693 20.4959 8.89224 20.0976 8.29737 19.6829C7.70249 19.2764 7.08752 18.8943 6.45245 18.5366C5.82542 18.187 5.10594 17.874 4.29401 17.5976C3.48209 17.3293 2.64604 17.1463 1.78589 17.0488V16.4634C2.51742 16.5366 3.26102 16.6748 4.01667 16.878C2.85104 16.1463 1.93059 15.0854 1.25532 13.6951C0.580056 12.3049 0.242424 10.626 0.242424 8.65854C0.242424 7.33333 0.459473 6.11789 0.893572 5.0122C1.32767 3.89837 1.90647 2.98374 2.62997 2.26829C3.35347 1.54472 4.17745 0.987805 5.10192 0.597561C6.03443 0.199187 7.00311 0 8.00797 0ZM8.0562 1.58537C7.21212 1.58537 6.41225 1.77642 5.6566 2.15854C4.90095 2.53252 4.23774 3.05691 3.66698 3.73171C3.09622 4.4065 2.64203 5.24797 2.30439 6.2561C1.9748 7.2561 1.81 8.34959 1.81 9.53659C1.81 10.7886 1.95068 11.8984 2.23204 12.8659C2.52144 13.8333 2.87917 14.5976 3.30523 15.1585C3.73933 15.7195 4.24578 16.1789 4.82458 16.5366C5.41141 16.8943 5.95806 17.1341 6.46451 17.2561C6.97899 17.378 7.50152 17.439 8.03209 17.439C8.41795 17.439 8.79176 17.4146 9.15351 17.3659C9.51526 17.3089 9.90916 17.2033 10.3352 17.0488C10.7613 16.8943 11.1552 16.6951 11.5169 16.4512C11.8787 16.2073 12.2324 15.8821 12.5781 15.4756C12.9237 15.061 13.2172 14.5854 13.4583 14.0488C13.6995 13.5122 13.8924 12.8618 14.0371 12.0976C14.1818 11.3252 14.2542 10.4715 14.2542 9.53659C14.2542 8.35772 14.0854 7.26423 13.7477 6.2561C13.4101 5.24797 12.9559 4.4065 12.3851 3.73171C11.8224 3.05691 11.1672 2.53252 10.4196 2.15854C9.67201 1.77642 8.88421 1.58537 8.0562 1.58537Z" fill="white"/>
    <path d="M21.3927 0.487805L21.3686 8.73171C21.3686 9.60976 21.3766 10.2967 21.3927 10.7927C21.457 12.752 21.7464 14.1789 22.2609 15.0732C22.9763 16.3252 24.2867 16.9512 26.1919 16.9512C27.2048 16.9512 28.0368 16.7805 28.688 16.439C29.725 15.9024 30.3922 14.8577 30.6896 13.3049C30.8745 12.3862 30.967 10.8618 30.967 8.73171V0.487805H32.631V8.92683C32.631 10.0732 32.5707 11.0772 32.4501 11.939C32.3296 12.8008 32.1205 13.5935 31.8231 14.3171C31.5337 15.0407 31.1438 15.6341 30.6535 16.0976C30.1711 16.5528 29.5561 16.9065 28.8085 17.1585C28.069 17.4106 27.1967 17.5366 26.1919 17.5366C25.179 17.5366 24.2947 17.4106 23.5391 17.1585C22.7914 16.9065 22.1725 16.5528 21.6821 16.0976C21.1997 15.6341 20.8099 15.0407 20.5124 14.3171C20.215 13.5935 20.006 12.8008 19.8854 11.939C19.7648 11.0772 19.7045 10.0732 19.7045 8.92683V0.487805H21.3927Z" fill="white"/>
    <path d="M38.0331 0.487805H39.6007V17.561H38.0331V0.487805Z" fill="white"/>
    <path d="M56 17.561H43.6764V16.0976L54.0224 1.12195H48.0656C47.0367 1.12195 46.269 1.31707 45.7625 1.70732C45.2561 2.08943 44.8581 2.72358 44.5687 3.60976H43.9658L44.6411 0.487805H55.7588V1.12195L45.5334 15.9512H56V17.561Z" fill="white"/>
</svg>
