<svg width="76" height="18" viewBox="0 0 76 18" fill="none" xmlns="http://www.w3.org/2000/svg">
    <path d="M16.5902 12.4083C16.5902 12.9909 16.513 13.5167 16.3586 13.9857C16.212 14.4472 16.0152 14.8558 15.7682 15.2113C15.5212 15.5669 15.2318 15.8695 14.8999 16.1192C14.568 16.3688 14.2245 16.5731 13.8695 16.732C13.5145 16.8909 13.1517 17.0081 12.7812 17.0838C12.4185 17.1594 12.075 17.1973 11.7509 17.1973H0.138927V14.2467H11.7509C12.3297 14.2467 12.7774 14.0803 13.0938 13.7474C13.418 13.4145 13.5801 12.9682 13.5801 12.4083C13.5801 12.136 13.5376 11.8863 13.4527 11.6593C13.3678 11.4324 13.2443 11.2357 13.0823 11.0692C12.9279 10.9028 12.7349 10.7742 12.5034 10.6834C12.2796 10.5926 12.0287 10.5472 11.7509 10.5472H4.8277C4.34146 10.5472 3.81662 10.464 3.2532 10.2976C2.68977 10.1235 2.16494 9.84741 1.6787 9.46913C1.20017 9.09086 0.798828 8.59532 0.474666 7.98252C0.158222 7.36971 0 6.62073 0 5.73557C0 4.85041 0.158222 4.10521 0.474666 3.49997C0.798828 2.88717 1.20017 2.39163 1.6787 2.01335C2.16494 1.62751 2.68977 1.35137 3.2532 1.18493C3.81662 1.01093 4.34146 0.923925 4.8277 0.923925H15.0735V3.87446H4.8277C4.25656 3.87446 3.8089 4.04468 3.48474 4.38513C3.1683 4.72558 3.01008 5.17572 3.01008 5.73557C3.01008 6.30298 3.1683 6.75313 3.48474 7.08601C3.8089 7.41132 4.25656 7.57398 4.8277 7.57398H11.7509H11.774C12.0982 7.58155 12.4416 7.62694 12.8044 7.71016C13.1672 7.78581 13.526 7.90686 13.8811 8.0733C14.2438 8.23974 14.5873 8.45158 14.9115 8.7088C15.2356 8.95846 15.5212 9.26108 15.7682 9.61666C16.0229 9.97224 16.2235 10.3808 16.3702 10.8423C16.5168 11.3038 16.5902 11.8258 16.5902 12.4083Z" fill="white"/>
    <path d="M36.5145 10.6153C36.5145 11.6064 36.3409 12.518 35.9936 13.3502C35.6463 14.1824 35.1639 14.9011 34.5464 15.5064C33.929 16.1116 33.1957 16.5845 32.3467 16.9249C31.5055 17.2578 30.587 17.4242 29.5914 17.4242H25.5162C24.5205 17.4242 23.5982 17.2578 22.7492 16.9249C21.9002 16.5845 21.167 16.1116 20.5496 15.5064C19.9321 14.9011 19.4459 14.1824 19.0908 13.3502C18.7435 12.518 18.5699 11.6064 18.5699 10.6153V7.50589C18.5699 6.52238 18.7435 5.61452 19.0908 4.78232C19.4459 3.94255 19.9321 3.22383 20.5496 2.62616C21.167 2.02092 21.9002 1.54808 22.7492 1.20763C23.5982 0.867184 24.5205 0.69696 25.5162 0.69696H29.5914C30.587 0.69696 31.5055 0.867184 32.3467 1.20763C33.1957 1.54808 33.929 2.02092 34.5464 2.62616C35.1639 3.22383 35.6463 3.94255 35.9936 4.78232C36.3409 5.61452 36.5145 6.52238 36.5145 7.50589V10.6153ZM33.5045 7.50589C33.5045 6.92335 33.408 6.39755 33.215 5.92849C33.0298 5.45186 32.7635 5.04711 32.4162 4.71423C32.0766 4.37378 31.6637 4.11277 31.1774 3.9312C30.6989 3.74207 30.1702 3.6475 29.5914 3.6475H25.5162C24.9296 3.6475 24.3932 3.74207 23.907 3.9312C23.4284 4.11277 23.0155 4.37378 22.6682 4.71423C22.3209 5.04711 22.0507 5.45186 21.8578 5.92849C21.6726 6.39755 21.5799 6.92335 21.5799 7.50589V10.6153C21.5799 11.1978 21.6726 11.7274 21.8578 12.2041C22.0507 12.6731 22.3209 13.0779 22.6682 13.4183C23.0155 13.7512 23.4284 14.0122 23.907 14.2013C24.3932 14.3829 24.9296 14.4737 25.5162 14.4737H29.5682C30.1548 14.4737 30.6873 14.3829 31.1659 14.2013C31.6521 14.0122 32.0689 13.7512 32.4162 13.4183C32.7635 13.0779 33.0298 12.6731 33.215 12.2041C33.408 11.7274 33.5045 11.1978 33.5045 10.6153V7.50589Z" fill="white"/>
    <path d="M56.08 15.9376C56.08 16.1494 56.0376 16.3462 55.9527 16.5277C55.8755 16.7093 55.7675 16.8682 55.6285 17.0043C55.4973 17.133 55.3391 17.2351 55.1539 17.3107C54.9686 17.3864 54.7718 17.4242 54.5634 17.4242C54.3782 17.4242 54.1891 17.3902 53.9961 17.3221C53.8109 17.254 53.645 17.1443 53.4983 16.993L42.5 5.73557V17.1973H39.4899V2.18358C39.4899 1.88096 39.5748 1.6086 39.7446 1.36651C39.9221 1.11684 40.1459 0.93149 40.4161 0.810443C40.7016 0.69696 40.9949 0.670481 41.2959 0.731005C41.5969 0.783963 41.8555 0.920142 42.0716 1.13954L53.07 12.3856V0.923925H56.08V15.9376Z" fill="white"/>
    <path d="M75.9697 15.7107C75.9697 15.9225 75.9311 16.1192 75.8539 16.3008C75.7767 16.4823 75.6687 16.6412 75.5298 16.7774C75.3986 16.906 75.2403 17.0081 75.0551 17.0838C74.8699 17.1594 74.6692 17.1973 74.4531 17.1973H63.5937C63.3158 17.1973 63.0148 17.167 62.6906 17.1065C62.3742 17.0384 62.0577 16.9363 61.7413 16.8001C61.4326 16.6639 61.1354 16.4899 60.8499 16.2781C60.5643 16.0587 60.3096 15.7977 60.0858 15.495C59.8696 15.1849 59.696 14.8293 59.5648 14.4283C59.4336 14.0198 59.368 13.5621 59.368 13.0552V5.06602C59.368 4.79367 59.3988 4.5024 59.4606 4.19221C59.53 3.87446 59.6342 3.56428 59.7732 3.26166C59.9121 2.95147 60.0935 2.65642 60.3173 2.3765C60.5411 2.09657 60.8074 1.8507 61.1161 1.63886C61.4326 1.41946 61.7953 1.24546 62.2044 1.11684C62.6134 0.988231 63.0765 0.923925 63.5937 0.923925H75.8308V3.87446H63.5937C63.2 3.87446 62.899 3.9766 62.6906 4.18086C62.4822 4.38513 62.378 4.68775 62.378 5.08872V13.0552C62.378 13.4334 62.4822 13.7285 62.6906 13.9403C62.9067 14.1446 63.2077 14.2467 63.5937 14.2467H72.9596V10.5472H64.9482V7.57398H74.4531C74.6692 7.57398 74.8699 7.61559 75.0551 7.69881C75.2403 7.77447 75.3986 7.88038 75.5298 8.01656C75.6687 8.15274 75.7767 8.31161 75.8539 8.49319C75.9311 8.66719 75.9697 8.85633 75.9697 9.0606V15.7107Z" fill="white"/>
</svg>

